<svg width="94" height="32" viewBox="0 0 94 32" fill="none" xmlns="http://www.w3.org/2000/svg">
<path d="M11.1387 0.533203C11.1582 0.542969 11.1924 0.5625 11.2412 0.591797C11.29 0.611328 11.3291 0.630859 11.3584 0.650391C11.3877 0.669922 11.4219 0.704102 11.4609 0.75293C11.5 0.791992 11.5342 0.84082 11.5635 0.899414C11.6514 1.0752 11.6221 1.27051 11.4756 1.48535L10.5381 2.90625C10.3525 3.17969 10.0693 3.60938 9.68848 4.19531C9.30762 4.78125 9.02441 5.21582 8.83887 5.49902C8.75098 5.62598 8.5752 5.89941 8.31152 6.31934C8.05762 6.73926 7.87695 7.01758 7.76953 7.1543C7.75 7.17383 7.7207 7.21289 7.68164 7.27148C7.65234 7.33008 7.62793 7.37402 7.6084 7.40332L6.23145 9.5127L5.92383 9.99609L4.40039 12.3691C4.20508 12.6621 3.93652 13.0869 3.59473 13.6436C3.2627 14.2002 3.0332 14.5811 2.90625 14.7861C2.86719 14.8447 2.81836 14.9277 2.75977 15.0352C2.70117 15.1328 2.65234 15.2109 2.61328 15.2695L2.32031 15.7383C2.33984 15.7285 2.44238 15.6797 2.62793 15.5918C2.81348 15.5039 2.92578 15.4551 2.96484 15.4453C3.11133 15.377 3.34082 15.2842 3.65332 15.167C4.44434 14.8838 5.16211 14.7422 5.80664 14.7422C6.22656 14.7422 6.57324 14.8008 6.84668 14.918C7.10059 15.0254 7.29102 15.1523 7.41797 15.2988C7.47656 15.3672 7.52539 15.4404 7.56445 15.5186C7.60352 15.5869 7.62793 15.6357 7.6377 15.665C7.64746 15.6943 7.65723 15.7529 7.66699 15.8408C7.68652 15.9189 7.69629 15.9678 7.69629 15.9873C7.81348 15.9678 8.15527 15.9287 8.72168 15.8701C9.28809 15.8115 9.62988 15.7773 9.74707 15.7676C10.1279 15.709 10.3623 15.6797 10.4502 15.6797C10.5771 15.6797 10.6748 15.6992 10.7432 15.7383C10.8701 15.8066 10.9629 15.9043 11.0215 16.0312C11.0801 16.1582 11.0752 16.3047 11.0068 16.4707C10.9482 16.5684 10.6455 16.6465 10.0986 16.7051C9.98145 16.7246 9.80566 16.7441 9.57129 16.7637C9.34668 16.7832 9.17578 16.8027 9.05859 16.8223C8.83398 16.8418 8.49219 16.876 8.0332 16.9248C7.58398 16.9736 7.24707 17.0127 7.02246 17.042C6.91504 17.0518 6.82715 17.0664 6.75879 17.0859C6.7002 17.1055 6.65625 17.1201 6.62695 17.1299C6.59766 17.1396 6.53418 17.1738 6.43652 17.2324C6.34863 17.291 6.27051 17.3398 6.20215 17.3789C5.63574 17.7012 4.83008 18.0332 3.78516 18.375C3.26758 18.541 2.8623 18.624 2.56934 18.624C2.2959 18.624 2.08594 18.5557 1.93945 18.4189C1.8125 18.3115 1.72949 18.1992 1.69043 18.082C1.6709 18.0332 1.66113 17.9697 1.66113 17.8916C1.66113 17.8037 1.68555 17.7109 1.73438 17.6133C1.7832 17.5156 1.82715 17.4473 1.86621 17.4082C1.90527 17.3594 1.97852 17.2812 2.08594 17.1738L2.26172 17.0127C1.92969 17.1787 1.55859 17.4668 1.14844 17.877C1.12891 17.8965 1.09473 17.9307 1.0459 17.9795C1.00684 18.0283 0.972656 18.0625 0.943359 18.082C0.923828 18.1016 0.889648 18.126 0.84082 18.1553C0.801758 18.1748 0.75293 18.1846 0.694336 18.1846C0.635742 18.1748 0.572266 18.1553 0.503906 18.126C0.396484 18.0869 0.303711 18.0088 0.225586 17.8916C0.137695 17.7744 0.103516 17.6475 0.123047 17.5107C0.132812 17.4424 0.230469 17.2422 0.416016 16.9102C0.601562 16.5781 0.738281 16.3486 0.826172 16.2217C0.904297 16.085 1.02637 15.8799 1.19238 15.6064C1.3584 15.3232 1.48047 15.1133 1.55859 14.9766L2.70117 13.1309C2.7793 12.9941 2.84277 12.8916 2.8916 12.8232L3.46289 11.9004C3.50195 11.832 3.56543 11.7344 3.65332 11.6074C3.74121 11.4707 3.80469 11.3682 3.84375 11.2998C3.93164 11.1729 4.05859 10.9727 4.22461 10.6992C4.39062 10.4258 4.51758 10.2256 4.60547 10.0986L10.4795 1.06055C10.499 1.02148 10.5332 0.972656 10.582 0.914062C10.6309 0.855469 10.665 0.806641 10.6846 0.767578C10.7334 0.699219 10.8164 0.621094 10.9336 0.533203H11.1387ZM2.74512 16.7197L3.74121 16.5C4.22949 16.4121 4.92773 16.3096 5.83594 16.1924C6.08984 16.1631 6.24609 16.124 6.30469 16.0752C6.44141 15.9775 6.54883 15.8799 6.62695 15.7822C6.54883 15.7236 6.36816 15.6943 6.08496 15.6943C5.94824 15.6943 5.7627 15.709 5.52832 15.7383C5.18652 15.7773 4.84473 15.8506 4.50293 15.958C4.23926 16.0361 3.90723 16.1582 3.50684 16.3242C3.11621 16.4902 2.8623 16.6221 2.74512 16.7197ZM9.79102 16.1045L9.82031 16.0752C9.9082 15.8994 9.98145 15.7822 10.04 15.7236C10.1377 15.626 10.2549 15.543 10.3916 15.4746C10.8896 15.2402 11.5439 15.0742 12.3545 14.9766C12.3545 14.9766 12.3838 14.9766 12.4424 14.9766C12.6084 14.9766 12.7549 15.0205 12.8818 15.1084C13.0088 15.1963 13.082 15.3037 13.1016 15.4307C13.1895 15.4111 13.9756 15.1963 15.46 14.7861C15.7041 14.7178 15.8994 14.7422 16.0459 14.8594C16.3486 15.1035 16.3877 15.3574 16.1631 15.6211C15.9092 15.9043 15.7676 16.1289 15.7383 16.2949H15.9434C16.5977 16.2949 17.4375 16.1533 18.4629 15.8701C18.4629 15.8701 18.668 15.8115 19.0781 15.6943C19.1074 15.6846 19.1562 15.6797 19.2246 15.6797C19.3906 15.6797 19.5273 15.7432 19.6348 15.8701C19.752 15.9971 19.8105 16.1338 19.8105 16.2803C19.8105 16.3389 19.7959 16.3975 19.7666 16.4561C19.7275 16.5342 19.5518 16.6172 19.2393 16.7051C18.6045 16.8809 18.1846 16.9932 17.9795 17.042C17.5986 17.1299 17.1494 17.2031 16.6318 17.2617C16.5537 17.2715 16.4365 17.2764 16.2803 17.2764C15.8408 17.2764 15.4746 17.1836 15.1816 16.998C14.8887 16.8027 14.7471 16.4902 14.7568 16.0605C14.6494 16.0605 14.2197 16.168 13.4678 16.3828C13.3604 16.4121 12.9307 16.5146 12.1787 16.6904C11.4756 16.8369 11.0117 16.9102 10.7871 16.9102C10.4844 16.9102 10.2646 16.8613 10.1279 16.7637C10.0693 16.7246 10.0156 16.6807 9.9668 16.6318C9.92773 16.583 9.89844 16.5439 9.87891 16.5146C9.86914 16.4756 9.85449 16.4316 9.83496 16.3828C9.81543 16.334 9.80078 16.2998 9.79102 16.2803V16.1045ZM19.7373 14.5225C19.7373 14.5225 19.7666 14.5225 19.8252 14.5225C19.9717 14.5225 20.1035 14.5859 20.2207 14.7129C20.3379 14.8398 20.3965 14.9766 20.3965 15.123C20.3965 15.2012 20.3086 15.3623 20.1328 15.6064C19.9668 15.8506 19.8643 16.0703 19.8252 16.2656C19.8057 16.3633 19.8398 16.4316 19.9277 16.4707C20.1035 16.5391 20.333 16.5732 20.6162 16.5732C21.5342 16.5732 22.5986 16.3389 23.8096 15.8701C24.1709 15.7236 24.3906 15.6504 24.4688 15.6504C24.5859 15.6504 24.6982 15.6895 24.8057 15.7676C24.9717 15.8945 25.0547 16.0459 25.0547 16.2217C25.0547 16.3877 24.9619 16.5098 24.7764 16.5879C23.3799 17.2129 22.1006 17.5254 20.9385 17.5254C20.2744 17.5254 19.7617 17.3984 19.4004 17.1445C19.2832 17.0566 19.1709 16.9395 19.0635 16.793C18.9268 16.5977 18.8584 16.3828 18.8584 16.1484C18.8584 15.8945 18.9463 15.6016 19.1221 15.2695C19.2295 15.084 19.3125 14.9424 19.3711 14.8447C19.4785 14.6689 19.6006 14.5615 19.7373 14.5225ZM23.3115 8.23828H23.4141C23.5801 8.23828 23.7314 8.30176 23.8682 8.42871C24.0049 8.55566 24.083 8.69727 24.1025 8.85352C24.1416 9.10742 24.0928 9.2832 23.9561 9.38086C23.9268 9.40039 23.8926 9.41992 23.8535 9.43945C23.8242 9.44922 23.7949 9.4541 23.7656 9.4541C23.7461 9.4541 23.7168 9.4541 23.6777 9.4541C23.6387 9.44434 23.6094 9.43457 23.5898 9.4248C23.5703 9.41504 23.541 9.40527 23.502 9.39551C23.4629 9.37598 23.4336 9.36133 23.4141 9.35156H23.3994C23.3604 9.35156 23.2773 9.39551 23.1504 9.4834C23.0234 9.56152 22.9014 9.64941 22.7842 9.74707C22.667 9.84473 22.5449 9.94727 22.418 10.0547C22.3008 10.1621 22.2324 10.2207 22.2129 10.2305C22.125 10.2988 22.0518 10.3672 21.9932 10.4355C21.9346 10.4941 21.8906 10.5381 21.8613 10.5674C21.793 10.6357 21.7051 10.6699 21.5977 10.6699C21.4609 10.6699 21.3291 10.6162 21.2021 10.5088C21.0752 10.3916 21.0117 10.2549 21.0117 10.0986C21.0117 10.04 21.0215 9.98633 21.041 9.9375C21.0703 9.87891 21.1094 9.82031 21.1582 9.76172C21.2168 9.70312 21.2607 9.65918 21.29 9.62988C21.3291 9.59082 21.3877 9.54199 21.4658 9.4834C21.5439 9.41504 21.5879 9.37598 21.5977 9.36621C22.4082 8.66309 22.9795 8.28711 23.3115 8.23828ZM21.5977 22.8281L21.627 22.6963C21.7148 22.2568 21.8662 21.7441 22.0811 21.1582C22.5205 19.9473 23.4238 17.9746 24.791 15.2402C24.8496 15.1328 24.9277 14.9863 25.0254 14.8008C25.123 14.6055 25.2109 14.4297 25.2891 14.2734C25.377 14.1172 25.4551 13.9658 25.5234 13.8193C25.6113 13.6338 25.7432 13.375 25.9189 13.043C26.0947 12.7109 26.207 12.501 26.2559 12.4131C26.4707 12.0029 26.5977 11.7686 26.6367 11.71C26.666 11.6611 26.7246 11.5586 26.8125 11.4023C26.9004 11.2363 26.9688 11.1094 27.0176 11.0215C27.0957 10.8848 27.2227 10.6553 27.3984 10.333C27.418 10.2939 28.082 9.15625 29.3906 6.91992C29.6641 6.44141 29.9375 5.99707 30.2109 5.58691C30.8945 4.52246 31.5098 3.60938 32.0566 2.84766L32.8916 1.82227L33.4336 1.28027C33.5312 1.18262 33.6191 1.10937 33.6973 1.06055C33.7754 1.01172 33.8486 0.972656 33.917 0.943359C33.9951 0.914062 34.0537 0.889648 34.0928 0.870117H34.4443C34.4541 0.870117 34.4883 0.889648 34.5469 0.928711C34.6055 0.958008 34.6494 0.987305 34.6787 1.0166C34.708 1.0459 34.7471 1.08496 34.7959 1.13379C34.8447 1.17285 34.8789 1.22656 34.8984 1.29492C34.918 1.35352 34.9229 1.41699 34.9131 1.48535C34.9033 1.60254 34.8691 1.68555 34.8105 1.73438C34.752 1.77344 34.6641 1.80762 34.5469 1.83691C34.4395 1.85645 34.3516 1.89063 34.2832 1.93945L33.2432 3.05273C33.0186 3.32617 32.7549 3.68262 32.4521 4.12207C32.1592 4.55176 31.9736 4.82031 31.8955 4.92773C31.8369 5.01562 31.7539 5.1377 31.6465 5.29395C31.5488 5.4502 31.4902 5.54297 31.4707 5.57227C31.2461 5.9043 30.9287 6.40723 30.5186 7.08105C30.1182 7.74512 29.8838 8.13086 29.8154 8.23828C29.5811 8.59961 29.332 9.01465 29.0684 9.4834C28.8047 9.95215 28.5117 10.4746 28.1895 11.0508C27.877 11.627 27.6426 12.0566 27.4863 12.3398L26.7393 13.7461C26.3193 14.5273 26.0703 15.001 25.9922 15.167C25.9043 15.3428 25.7773 15.5918 25.6113 15.9141C25.4453 16.2266 25.333 16.4463 25.2744 16.5732C24.3467 18.4873 23.6729 19.9668 23.2529 21.0117C22.9209 21.7832 22.7354 22.3057 22.6963 22.5791C22.7354 22.5498 22.7842 22.5059 22.8428 22.4473C22.8916 22.3789 22.9307 22.3301 22.96 22.3008C22.9795 22.2812 23.0088 22.2568 23.0479 22.2275C23.0869 22.1885 23.1211 22.1543 23.1504 22.125C23.1699 22.0957 23.1943 22.0664 23.2236 22.0371L24.4248 20.5723C24.4541 20.5332 24.4932 20.4844 24.542 20.4258C24.5908 20.3672 24.6299 20.3184 24.6592 20.2793L25.1133 19.6641C25.25 19.4883 25.4014 19.2881 25.5674 19.0635C25.626 18.9951 25.6602 18.9561 25.6699 18.9463C25.6797 18.9268 25.7139 18.8926 25.7725 18.8438C25.8311 18.7852 25.875 18.7559 25.9043 18.7559C25.9434 18.7461 25.9971 18.7461 26.0654 18.7559C26.1338 18.7656 26.2021 18.79 26.2705 18.8291C26.3779 18.8877 26.4658 18.9902 26.5342 19.1367C26.6025 19.2734 26.6025 19.4053 26.5342 19.5322C26.5049 19.5908 26.4658 19.6445 26.417 19.6934C26.3779 19.752 26.3438 19.8008 26.3145 19.8398C25.4648 20.9824 24.9229 21.6807 24.6885 21.9346C24.6396 21.9834 24.5615 22.0762 24.4541 22.2129C24.3564 22.3496 24.2734 22.4521 24.2051 22.5205C23.9707 22.7744 23.7998 22.96 23.6924 23.0771C23.3213 23.5068 22.9844 23.7852 22.6816 23.9121C22.6621 23.9219 22.6328 23.9365 22.5938 23.9561C22.5449 23.9658 22.5107 23.9756 22.4912 23.9854H22.2275C22.1885 23.9658 22.1494 23.9463 22.1104 23.9268C22.0615 23.9072 22.0225 23.8926 21.9932 23.8828C21.9639 23.8633 21.9346 23.8438 21.9053 23.8242C21.8662 23.7949 21.832 23.7607 21.8027 23.7217C21.7637 23.6631 21.7197 23.5898 21.6709 23.502C21.6611 23.4824 21.6514 23.4434 21.6416 23.3848C21.6221 23.3262 21.6074 23.2822 21.5977 23.2529V22.8281ZM29.4785 16.2363C29.5859 16.3145 30.084 16.3535 30.9727 16.3535C30.9727 16.3535 31.1338 16.3535 31.4561 16.3535C32.6475 16.3145 33.8926 16.1631 35.1914 15.8994C35.2891 15.8799 35.4307 15.8506 35.6162 15.8115C35.8115 15.7627 35.958 15.7285 36.0557 15.709C36.2412 15.6504 36.3877 15.6309 36.4951 15.6504C36.6025 15.6602 36.7148 15.7236 36.832 15.8408C36.9395 15.9482 36.998 16.0752 37.0078 16.2217C37.0176 16.3584 36.959 16.4658 36.832 16.5439C36.7148 16.6025 36.3096 16.7002 35.6162 16.8369C34.9326 16.9639 34.4639 17.042 34.21 17.0713C33.0479 17.2373 32.0078 17.3203 31.0898 17.3203C29.8496 17.3203 29.0244 17.1543 28.6143 16.8223C28.3604 16.6172 28.2334 16.3975 28.2334 16.1631C28.2334 16.0166 28.375 15.8115 28.6582 15.5479C29.4785 14.7666 30.3379 14.2197 31.2363 13.9072C31.5586 13.79 31.8857 13.7314 32.2178 13.7314C32.5107 13.7314 32.7402 13.7998 32.9062 13.9365C33.1797 14.1611 33.2676 14.4102 33.1699 14.6836C33.1504 14.7422 33.1162 14.8008 33.0674 14.8594C33.0283 14.9082 32.9844 14.957 32.9355 15.0059C32.8867 15.0547 32.8232 15.1035 32.7451 15.1523C32.667 15.2012 32.5938 15.2451 32.5254 15.2842C32.4668 15.3135 32.3838 15.3525 32.2764 15.4014C32.1787 15.4404 32.1006 15.4746 32.042 15.5039C31.9834 15.5234 31.8955 15.5527 31.7783 15.5918C31.6709 15.6309 31.5977 15.6602 31.5586 15.6797C31.5195 15.6895 31.4414 15.7139 31.3242 15.7529C31.2168 15.7822 31.1582 15.7969 31.1484 15.7969C30.9922 15.8457 30.7139 15.9141 30.3135 16.002L29.6543 16.1484C29.5664 16.168 29.5078 16.1973 29.4785 16.2363ZM37.8574 21.5244C37.7988 21.5244 37.7109 21.5391 37.5938 21.5684C37.4863 21.5879 37.4131 21.5977 37.374 21.5977C35.4502 21.8613 33.79 22.2764 32.3936 22.8428C31.5635 23.1846 30.8262 23.5801 30.1816 24.0293L30.1084 24.1025C29.8643 24.3076 29.6885 24.459 29.5811 24.5566C28.8193 25.3184 28.4385 26.1826 28.4385 27.1494C28.4385 27.4033 28.458 27.6426 28.4971 27.8672C28.5654 28.2676 28.7021 28.6973 28.9072 29.1562C28.9561 29.2637 29.0293 29.376 29.127 29.4932C29.4883 29.9521 29.9375 30.1816 30.4746 30.1816C30.5723 30.1816 30.6455 30.1768 30.6943 30.167C31.29 30.0889 32.0078 29.6738 32.8477 28.9219C32.9941 28.7949 33.3164 28.458 33.8145 27.9111C33.834 27.9014 33.8535 27.877 33.873 27.8379C33.8926 27.7988 33.9121 27.7695 33.9316 27.75C34.1367 27.5156 34.3857 27.1982 34.6787 26.7979L35.3818 25.8018C35.7236 25.2842 35.9434 24.9424 36.041 24.7764L36.6709 23.707C36.7002 23.668 36.7344 23.6094 36.7734 23.5312C36.8125 23.4531 36.8467 23.3945 36.876 23.3555C36.9639 23.2188 37.1445 22.8916 37.418 22.374C37.7012 21.8467 37.8477 21.5635 37.8574 21.5244ZM27.4863 26.4902L27.5156 26.4023V26.3291C27.5156 26.3096 27.5254 26.2607 27.5449 26.1826C27.6719 25.499 27.96 24.8643 28.4092 24.2783C28.6631 23.9463 29.0781 23.5605 29.6543 23.1211C29.7812 23.0234 30.0645 22.8428 30.5039 22.5791C30.7676 22.4326 31.0752 22.2812 31.4268 22.125C33.1943 21.373 35.416 20.8359 38.0918 20.5137C38.2383 20.5137 38.3408 20.499 38.3994 20.4697C38.4092 20.46 38.4385 20.4062 38.4873 20.3086C38.5459 20.2012 38.6143 20.0693 38.6924 19.9131C38.7705 19.7568 38.8438 19.6055 38.9121 19.459C38.9805 19.3125 39.0391 19.1807 39.0879 19.0635C39.1465 18.9365 39.1807 18.8682 39.1904 18.8584C39.2393 18.751 39.3125 18.5947 39.4102 18.3896C39.5078 18.1748 39.5811 18.0137 39.6299 17.9062C39.6592 17.8477 39.6982 17.7695 39.7471 17.6719C39.7959 17.5742 39.8301 17.4961 39.8496 17.4375C39.9766 17.1641 40.0449 16.998 40.0547 16.9395C39.9961 16.959 39.8984 17.0029 39.7617 17.0713C38.9512 17.4131 38.2871 17.667 37.7695 17.833C37.2227 18.0186 36.793 18.1162 36.4805 18.126H36.4512C36.2363 18.126 36.0459 18.0674 35.8799 17.9502C35.7139 17.8232 35.6016 17.6719 35.543 17.4961C35.5137 17.3984 35.499 17.291 35.499 17.1738C35.499 16.7539 35.7334 16.1826 36.2021 15.46C36.3291 15.3135 36.4609 15.2549 36.5977 15.2842C36.7441 15.3135 36.8711 15.3916 36.9785 15.5186C37.0469 15.6064 37.0859 15.6943 37.0957 15.7822C37.1055 15.8701 37.1055 15.9385 37.0957 15.9873C37.0859 16.0264 37.0518 16.0947 36.9932 16.1924C36.9346 16.2803 36.9004 16.3291 36.8906 16.3389C36.6367 16.8076 36.5098 17.0713 36.5098 17.1299C36.5879 17.1006 36.7002 17.0713 36.8467 17.042C36.9932 17.0127 37.1006 16.9834 37.1689 16.9541C37.833 16.7295 38.4482 16.4951 39.0146 16.251C39.5518 16.0264 40.1426 15.7725 40.7871 15.4893C40.8457 15.46 40.8994 15.4453 40.9482 15.4453C41.0947 15.4453 41.2266 15.5039 41.3438 15.6211C41.4707 15.7285 41.5342 15.8652 41.5342 16.0312C41.5342 16.1191 41.5146 16.2021 41.4756 16.2803C41.4463 16.3486 41.4023 16.4512 41.3438 16.5879C41.2949 16.7148 41.2559 16.8125 41.2266 16.8809C41.168 17.0176 41.0801 17.2129 40.9629 17.4668C40.8555 17.7207 40.7725 17.916 40.7139 18.0527C40.6455 18.209 40.5381 18.4385 40.3916 18.7412C40.2549 19.0342 40.1816 19.1953 40.1719 19.2246C39.8887 19.791 39.708 20.1719 39.6299 20.3672L40.8164 20.2939C40.9434 20.2842 41.1387 20.2793 41.4023 20.2793C41.6758 20.2695 41.876 20.2598 42.0029 20.25C42.1104 20.2402 42.2861 20.2354 42.5303 20.2354H43.248C44.752 20.2354 46.124 20.3086 47.3643 20.4551C47.3936 20.4551 47.457 20.46 47.5547 20.4697C47.6621 20.4795 47.7354 20.4893 47.7744 20.499C47.8135 20.5088 47.8672 20.5234 47.9355 20.543C48.0137 20.5625 48.0771 20.5967 48.126 20.6455C48.1748 20.6846 48.2188 20.7334 48.2578 20.792C48.375 20.9482 48.3994 21.1045 48.3311 21.2607C48.2725 21.3975 48.1504 21.4658 47.9648 21.4658C47.9062 21.4658 47.8086 21.4561 47.6719 21.4365C47.5449 21.4072 47.4473 21.3926 47.3789 21.3926C45.9922 21.2559 44.625 21.1875 43.2773 21.1875C42.1934 21.1875 41.1875 21.2217 40.2598 21.29C40.1816 21.29 39.9912 21.3047 39.6885 21.334C39.3857 21.3633 39.1953 21.3779 39.1172 21.3779C39.0781 21.4561 39.0146 21.583 38.9268 21.7588C38.8389 21.9248 38.7754 22.0469 38.7363 22.125C38.7168 22.1641 38.6826 22.2275 38.6338 22.3154C38.5947 22.3936 38.5654 22.4521 38.5459 22.4912C38.458 22.667 38.3213 22.9209 38.1357 23.2529C37.9502 23.5752 37.8232 23.7998 37.7549 23.9268C37.2764 24.7861 36.7832 25.5967 36.2754 26.3584C36.1484 26.5537 36.0752 26.666 36.0557 26.6953C36.0459 26.7051 36.0068 26.749 35.9385 26.8271C35.8799 26.915 35.8408 26.9785 35.8213 27.0176C35.6846 27.2227 35.5283 27.4424 35.3525 27.6768C35.0791 28.0479 34.8301 28.3604 34.6055 28.6143L34.21 29.0537C34.1514 29.1123 34.1074 29.1611 34.0781 29.2002C34.0293 29.2588 33.9268 29.3613 33.7705 29.5078C33.6045 29.6641 33.5166 29.7471 33.5068 29.7568C33.4971 29.7666 33.4873 29.7764 33.4775 29.7861C33.458 29.7959 33.4434 29.8057 33.4336 29.8154C32.877 30.3135 32.3496 30.6699 31.8516 30.8848C31.6758 30.9629 31.4609 31.0264 31.207 31.0752C31.1484 31.0947 31.1094 31.1045 31.0898 31.1045L31.002 31.1191H30.9873H30.9727H30.3867L30.1963 31.0898C30.1768 31.0898 30.1523 31.085 30.123 31.0752C30.084 31.0654 30.0547 31.0557 30.0352 31.0459C29.752 30.9775 29.4688 30.8457 29.1855 30.6504C29.0195 30.5332 28.8291 30.3623 28.6143 30.1377C28.3896 29.9229 28.2383 29.7422 28.1602 29.5957C28.082 29.4492 27.96 29.1562 27.7939 28.7168C27.7256 28.5215 27.667 28.3066 27.6182 28.0723L27.4863 27.3691V26.4902ZM50.3232 14.5225C50.3232 14.5225 50.3525 14.5225 50.4111 14.5225C50.5576 14.5225 50.6895 14.5859 50.8066 14.7129C50.9238 14.8398 50.9824 14.9766 50.9824 15.123C50.9824 15.2012 50.8945 15.3623 50.7188 15.6064C50.5527 15.8506 50.4502 16.0703 50.4111 16.2656C50.3916 16.3633 50.4258 16.4316 50.5137 16.4707C50.6895 16.5391 50.9189 16.5732 51.2021 16.5732C52.1201 16.5732 53.1846 16.3389 54.3955 15.8701C54.7568 15.7236 54.9766 15.6504 55.0547 15.6504C55.1719 15.6504 55.2842 15.6895 55.3916 15.7676C55.5576 15.8945 55.6406 16.0459 55.6406 16.2217C55.6406 16.3877 55.5479 16.5098 55.3623 16.5879C53.9658 17.2129 52.6865 17.5254 51.5244 17.5254C50.8604 17.5254 50.3477 17.3984 49.9863 17.1445C49.8691 17.0566 49.7568 16.9395 49.6494 16.793C49.5127 16.5977 49.4443 16.3828 49.4443 16.1484C49.4443 15.8945 49.5322 15.6016 49.708 15.2695C49.8154 15.084 49.8984 14.9424 49.957 14.8447C50.0645 14.6689 50.1865 14.5615 50.3232 14.5225ZM53.8975 8.23828H54C54.166 8.23828 54.3174 8.30176 54.4541 8.42871C54.5908 8.55566 54.6689 8.69727 54.6885 8.85352C54.7275 9.10742 54.6787 9.2832 54.542 9.38086C54.5127 9.40039 54.4785 9.41992 54.4395 9.43945C54.4102 9.44922 54.3809 9.4541 54.3516 9.4541C54.332 9.4541 54.3027 9.4541 54.2637 9.4541C54.2246 9.44434 54.1953 9.43457 54.1758 9.4248C54.1562 9.41504 54.127 9.40527 54.0879 9.39551C54.0488 9.37598 54.0195 9.36133 54 9.35156H53.9854C53.9463 9.35156 53.8633 9.39551 53.7363 9.4834C53.6094 9.56152 53.4873 9.64941 53.3701 9.74707C53.2529 9.84473 53.1309 9.94727 53.0039 10.0547C52.8867 10.1621 52.8184 10.2207 52.7988 10.2305C52.7109 10.2988 52.6377 10.3672 52.5791 10.4355C52.5205 10.4941 52.4766 10.5381 52.4473 10.5674C52.3789 10.6357 52.291 10.6699 52.1836 10.6699C52.0469 10.6699 51.915 10.6162 51.7881 10.5088C51.6611 10.3916 51.5977 10.2549 51.5977 10.0986C51.5977 10.04 51.6074 9.98633 51.627 9.9375C51.6562 9.87891 51.6953 9.82031 51.7441 9.76172C51.8027 9.70312 51.8467 9.65918 51.876 9.62988C51.915 9.59082 51.9736 9.54199 52.0518 9.4834C52.1299 9.41504 52.1738 9.37598 52.1836 9.36621C52.9941 8.66309 53.5654 8.28711 53.8975 8.23828ZM52.1836 22.8281L52.2129 22.6963C52.3008 22.2568 52.4521 21.7441 52.667 21.1582C53.1064 19.9473 54.0098 17.9746 55.377 15.2402C55.4355 15.1328 55.5137 14.9863 55.6113 14.8008C55.709 14.6055 55.7969 14.4297 55.875 14.2734C55.9629 14.1172 56.041 13.9658 56.1094 13.8193C56.1973 13.6338 56.3291 13.375 56.5049 13.043C56.6807 12.7109 56.793 12.501 56.8418 12.4131C57.0566 12.0029 57.1836 11.7686 57.2227 11.71C57.252 11.6611 57.3105 11.5586 57.3984 11.4023C57.4863 11.2363 57.5547 11.1094 57.6035 11.0215C57.6816 10.8848 57.8086 10.6553 57.9844 10.333C58.0039 10.2939 58.668 9.15625 59.9766 6.91992C60.25 6.44141 60.5234 5.99707 60.7969 5.58691C61.4805 4.52246 62.0957 3.60938 62.6426 2.84766L63.4775 1.82227L64.0195 1.28027C64.1172 1.18262 64.2051 1.10937 64.2832 1.06055C64.3613 1.01172 64.4346 0.972656 64.5029 0.943359C64.5811 0.914062 64.6396 0.889648 64.6787 0.870117H65.0303C65.04 0.870117 65.0742 0.889648 65.1328 0.928711C65.1914 0.958008 65.2354 0.987305 65.2646 1.0166C65.2939 1.0459 65.333 1.08496 65.3818 1.13379C65.4307 1.17285 65.4648 1.22656 65.4844 1.29492C65.5039 1.35352 65.5088 1.41699 65.499 1.48535C65.4893 1.60254 65.4551 1.68555 65.3965 1.73438C65.3379 1.77344 65.25 1.80762 65.1328 1.83691C65.0254 1.85645 64.9375 1.89063 64.8691 1.93945L63.8291 3.05273C63.6045 3.32617 63.3408 3.68262 63.0381 4.12207C62.7451 4.55176 62.5596 4.82031 62.4814 4.92773C62.4229 5.01562 62.3398 5.1377 62.2324 5.29395C62.1348 5.4502 62.0762 5.54297 62.0566 5.57227C61.832 5.9043 61.5146 6.40723 61.1045 7.08105C60.7041 7.74512 60.4697 8.13086 60.4014 8.23828C60.167 8.59961 59.918 9.01465 59.6543 9.4834C59.3906 9.95215 59.0977 10.4746 58.7754 11.0508C58.4629 11.627 58.2285 12.0566 58.0723 12.3398L57.3252 13.7461C56.9053 14.5273 56.6562 15.001 56.5781 15.167C56.4902 15.3428 56.3633 15.5918 56.1973 15.9141C56.0312 16.2266 55.9189 16.4463 55.8604 16.5732C54.9326 18.4873 54.2588 19.9668 53.8389 21.0117C53.5068 21.7832 53.3213 22.3057 53.2822 22.5791C53.3213 22.5498 53.3701 22.5059 53.4287 22.4473C53.4775 22.3789 53.5166 22.3301 53.5459 22.3008C53.5654 22.2812 53.5947 22.2568 53.6338 22.2275C53.6729 22.1885 53.707 22.1543 53.7363 22.125C53.7559 22.0957 53.7803 22.0664 53.8096 22.0371L55.0107 20.5723C55.04 20.5332 55.0791 20.4844 55.1279 20.4258C55.1768 20.3672 55.2158 20.3184 55.2451 20.2793L55.6992 19.6641C55.8359 19.4883 55.9873 19.2881 56.1533 19.0635C56.2119 18.9951 56.2461 18.9561 56.2559 18.9463C56.2656 18.9268 56.2998 18.8926 56.3584 18.8438C56.417 18.7852 56.4609 18.7559 56.4902 18.7559C56.5293 18.7461 56.583 18.7461 56.6514 18.7559C56.7197 18.7656 56.7881 18.79 56.8564 18.8291C56.9639 18.8877 57.0518 18.9902 57.1201 19.1367C57.1885 19.2734 57.1885 19.4053 57.1201 19.5322C57.0908 19.5908 57.0518 19.6445 57.0029 19.6934C56.9639 19.752 56.9297 19.8008 56.9004 19.8398C56.0508 20.9824 55.5088 21.6807 55.2744 21.9346C55.2256 21.9834 55.1475 22.0762 55.04 22.2129C54.9424 22.3496 54.8594 22.4521 54.791 22.5205C54.5566 22.7744 54.3857 22.96 54.2783 23.0771C53.9072 23.5068 53.5703 23.7852 53.2676 23.9121C53.248 23.9219 53.2188 23.9365 53.1797 23.9561C53.1309 23.9658 53.0967 23.9756 53.0771 23.9854H52.8135C52.7744 23.9658 52.7354 23.9463 52.6963 23.9268C52.6475 23.9072 52.6084 23.8926 52.5791 23.8828C52.5498 23.8633 52.5205 23.8438 52.4912 23.8242C52.4521 23.7949 52.418 23.7607 52.3887 23.7217C52.3496 23.6631 52.3057 23.5898 52.2568 23.502C52.2471 23.4824 52.2373 23.4434 52.2275 23.3848C52.208 23.3262 52.1934 23.2822 52.1836 23.2529V22.8281ZM58.6289 16.1045L58.6582 16.0752C58.7461 15.8994 58.8193 15.7822 58.8779 15.7236C58.9756 15.626 59.0928 15.543 59.2295 15.4746C59.7275 15.2402 60.3818 15.0742 61.1924 14.9766C61.1924 14.9766 61.2217 14.9766 61.2803 14.9766C61.4463 14.9766 61.5928 15.0205 61.7197 15.1084C61.8467 15.1963 61.9199 15.3037 61.9395 15.4307C62.0273 15.4111 62.8135 15.1963 64.2979 14.7861C64.542 14.7178 64.7373 14.7422 64.8838 14.8594C65.1865 15.1035 65.2256 15.3574 65.001 15.6211C64.7471 15.9043 64.6055 16.1289 64.5762 16.2949H64.7812C65.4355 16.2949 66.2754 16.1533 67.3008 15.8701C67.3008 15.8701 67.5059 15.8115 67.916 15.6943C67.9453 15.6846 67.9941 15.6797 68.0625 15.6797C68.2285 15.6797 68.3652 15.7432 68.4727 15.8701C68.5898 15.9971 68.6484 16.1338 68.6484 16.2803C68.6484 16.3389 68.6338 16.3975 68.6045 16.4561C68.5654 16.5342 68.3896 16.6172 68.0771 16.7051C67.4424 16.8809 67.0225 16.9932 66.8174 17.042C66.4365 17.1299 65.9873 17.2031 65.4697 17.2617C65.3916 17.2715 65.2744 17.2764 65.1182 17.2764C64.6787 17.2764 64.3125 17.1836 64.0195 16.998C63.7266 16.8027 63.585 16.4902 63.5947 16.0605C63.4873 16.0605 63.0576 16.168 62.3057 16.3828C62.1982 16.4121 61.7686 16.5146 61.0166 16.6904C60.3135 16.8369 59.8496 16.9102 59.625 16.9102C59.3223 16.9102 59.1025 16.8613 58.9658 16.7637C58.9072 16.7246 58.8535 16.6807 58.8047 16.6318C58.7656 16.583 58.7363 16.5439 58.7168 16.5146C58.707 16.4756 58.6924 16.4316 58.6729 16.3828C58.6533 16.334 58.6387 16.2998 58.6289 16.2803V16.1045ZM57.6621 27.7354C58.0039 27.9111 58.502 27.999 59.1562 27.999C60.2891 27.999 61.6416 27.7744 63.2139 27.3252C64.5908 26.9443 65.9775 26.4268 67.374 25.7725C68.7607 25.1279 69.9131 24.4102 70.8311 23.6191L71.2559 23.2383C71.3145 23.1895 71.3877 23.1162 71.4756 23.0186C71.5635 22.9209 71.627 22.8525 71.666 22.8135C71.9004 22.5986 72.1348 22.3008 72.3691 21.9199C72.7793 21.2754 72.9844 20.626 72.9844 19.9717C72.9844 19.7275 72.96 19.5127 72.9111 19.3271C72.7842 18.7803 72.6182 18.3994 72.4131 18.1846C72.3643 18.1943 72.1885 18.2773 71.8857 18.4336C69.8936 19.3906 68.0527 20.3232 66.3633 21.2314L64.3857 22.3008C63.6143 22.7207 62.8232 23.1943 62.0127 23.7217C61.876 23.8193 61.7246 23.917 61.5586 24.0146C61.3926 24.1221 61.0898 24.3271 60.6504 24.6299L59.7715 25.2598C59.4785 25.4844 59.1367 25.7725 58.7461 26.124C58.4824 26.3486 58.2334 26.6172 57.999 26.9297C57.7549 27.2422 57.6426 27.5107 57.6621 27.7354ZM58.834 28.9512C58.8047 28.9414 58.6826 28.9219 58.4678 28.8926C58.2529 28.8633 58.1162 28.8389 58.0576 28.8193C57.6865 28.7217 57.3691 28.5557 57.1055 28.3213C56.8418 28.0967 56.71 27.8037 56.71 27.4424C56.71 27.0322 56.8857 26.6172 57.2373 26.1973L57.6475 25.7139C58.0869 25.2744 58.3994 24.9863 58.585 24.8496C58.6631 24.8008 58.8291 24.6689 59.083 24.4541C59.1904 24.3564 59.3906 24.21 59.6836 24.0146C59.9766 23.8193 60.1279 23.7168 60.1377 23.707C60.9678 23.1211 62.457 22.2129 64.6055 20.9824C64.6348 20.9727 65.416 20.5527 66.9492 19.7227C67.877 19.2246 68.6777 18.8193 69.3516 18.5068L71.1533 17.6279C71.1826 17.6084 71.2803 17.5645 71.4463 17.4961C71.6221 17.418 71.7246 17.3643 71.7539 17.335L71.2998 16.8809C71.2119 16.793 71.1338 16.7246 71.0654 16.6758L70.8018 16.4561C70.5967 16.2998 70.3623 16.2266 70.0986 16.2363C69.8643 16.2363 69.5908 16.2803 69.2783 16.3682L68.7217 16.5586C68.3506 16.6758 68.0967 16.7344 67.96 16.7344C67.9014 16.7344 67.8623 16.7295 67.8428 16.7197C67.54 16.6221 67.3887 16.4316 67.3887 16.1484C67.3887 15.9141 67.5449 15.6846 67.8574 15.46C68.1699 15.2354 68.4824 15.0596 68.7949 14.9326C69.332 14.7275 69.9375 14.625 70.6113 14.625C71.1973 14.625 71.6123 14.7275 71.8564 14.9326C72.0225 15.0791 72.1055 15.2402 72.1055 15.416C72.1055 15.6406 71.9639 15.792 71.6807 15.8701L71.5342 15.9141L71.4902 15.958C71.5879 15.9971 71.7881 16.1729 72.0908 16.4854L72.5449 16.9541L73.4385 16.5439C73.6436 16.4463 73.9414 16.3096 74.332 16.1338C74.7227 15.958 75.0254 15.8164 75.2402 15.709C75.5234 15.582 75.7529 15.6406 75.9287 15.8848L76.0605 16.1191V16.3535C76.0215 16.4121 75.9873 16.4561 75.958 16.4854C75.9385 16.5049 75.9043 16.5293 75.8555 16.5586C75.8164 16.5879 75.7871 16.6074 75.7676 16.6172C75.7578 16.627 75.709 16.6514 75.6211 16.6904C75.5332 16.7197 75.46 16.749 75.4014 16.7783L73.1895 17.8037C73.2188 17.8525 73.2676 17.9355 73.3359 18.0527C73.4043 18.1699 73.4531 18.2627 73.4824 18.3311C73.7852 18.9756 73.9365 19.6104 73.9365 20.2354C73.9365 21.2119 73.5459 22.1982 72.7646 23.1943C72.0615 24.0928 71.0215 24.9473 69.6445 25.7578C69.1074 26.0703 68.5557 26.3633 67.9893 26.6367C67.4326 26.9199 66.9053 27.1592 66.4072 27.3545C65.8994 27.5498 65.4014 27.7305 64.9131 27.8965C64.415 28.0625 63.9561 28.1943 63.5361 28.292C63.1162 28.3994 62.7207 28.4922 62.3496 28.5703C61.9688 28.6582 61.6318 28.7217 61.3389 28.7607C61.0361 28.8096 60.7822 28.8486 60.5771 28.8779C60.3623 28.9072 60.1914 28.9268 60.0645 28.9365L59.874 28.9512H58.834ZM93.3896 16.3389C93.3799 16.3486 93.375 16.3584 93.375 16.3682C93.3652 16.3877 93.3604 16.4023 93.3604 16.4121C93.3604 16.4219 93.3555 16.4365 93.3457 16.4561C93.3457 16.4756 93.3408 16.4902 93.3311 16.5C93.3115 16.5293 93.2725 16.5635 93.2139 16.6025C93.1357 16.6416 93.0283 16.6904 92.8916 16.749C91.9639 17.1299 91.2949 17.3789 90.8848 17.4961C90.4746 17.6133 90.1377 17.6719 89.874 17.6719C89.3857 17.6719 89.0342 17.501 88.8193 17.1592C88.7803 17.1104 88.7412 16.998 88.7021 16.8223C88.6826 16.7148 88.6729 16.5684 88.6729 16.3828C88.2529 16.4609 87.6426 16.6172 86.8418 16.8516C86.6758 16.9004 86.4902 16.959 86.2852 17.0273C86.0898 17.0859 85.8701 17.1592 85.626 17.2471C85.3818 17.3252 85.2012 17.3838 85.084 17.4229C84.9277 17.4717 84.7031 17.5498 84.4102 17.6572C84.127 17.7549 83.9219 17.8232 83.7949 17.8623C83.6094 17.9209 83.458 17.9209 83.3408 17.8623C83.2139 17.8037 83.1064 17.7061 83.0186 17.5693C82.9404 17.4229 82.9404 17.2764 83.0186 17.1299C83.0381 17.1006 83.1064 16.9785 83.2236 16.7637C83.3506 16.5391 83.4189 16.4121 83.4287 16.3828L82.9014 16.5879C82.0029 16.9199 81.2559 17.0859 80.6602 17.0859C80.3477 17.0859 80.084 17.0273 79.8691 16.9102C79.8008 16.8711 79.7324 16.8174 79.6641 16.749L79.5762 16.6611C79.498 16.5732 79.4395 16.4463 79.4004 16.2803V15.9287C77.7207 16.3779 76.5684 16.6465 75.9434 16.7344C75.7285 16.7539 75.5771 16.7637 75.4893 16.7637C75.0693 16.7637 74.7861 16.6172 74.6396 16.3242C74.5127 16.0801 74.5762 15.8311 74.8301 15.5771C75.1914 15.2158 75.8994 14.9766 76.9541 14.8594C77.1104 14.8301 77.2568 14.8252 77.3936 14.8447C77.5303 14.8545 77.6523 14.9229 77.7598 15.0498C77.7793 15.0693 77.8232 15.1475 77.8916 15.2842L78.4922 15.1377C78.7461 15.0596 78.9414 15.001 79.0781 14.9619C79.6055 14.8252 80.001 14.7178 80.2646 14.6396C80.4209 14.6006 80.5234 14.5859 80.5723 14.5957C80.709 14.625 80.8262 14.7031 80.9238 14.8301C81.0312 14.957 81.0752 15.0938 81.0557 15.2402C81.0459 15.2988 80.9873 15.3965 80.8799 15.5332L80.6602 15.7822C80.543 15.9287 80.4648 16.041 80.4258 16.1191C80.4355 16.1191 80.4502 16.124 80.4697 16.1338C80.4893 16.1338 80.5088 16.1338 80.5283 16.1338C80.8799 16.1338 81.4512 16.002 82.2422 15.7383C82.4668 15.6699 82.7305 15.5674 83.0332 15.4307L83.5898 15.167C83.8828 15.0205 84.1221 14.8887 84.3076 14.7715C84.3174 14.7617 84.3418 14.7471 84.3809 14.7275C84.4297 14.6982 84.459 14.6787 84.4688 14.6689C84.4883 14.6592 84.5176 14.6494 84.5566 14.6396C84.5957 14.6299 84.6299 14.625 84.6592 14.625C84.6885 14.625 84.7227 14.6348 84.7617 14.6543C84.8105 14.6641 84.8594 14.6836 84.9082 14.7129C84.9473 14.7324 84.9766 14.752 84.9961 14.7715C85.0059 14.7812 85.0156 14.791 85.0254 14.8008C85.0352 14.8203 85.0449 14.835 85.0547 14.8447C85.1133 14.9033 85.1523 14.957 85.1719 15.0059C85.2402 15.1426 85.2402 15.2842 85.1719 15.4307L84.5713 16.5146L86.0068 16.0459C86.0264 16.0361 86.3926 15.9287 87.1055 15.7236C87.2324 15.6846 87.3545 15.6504 87.4717 15.6211C87.6572 15.5625 87.916 15.5039 88.248 15.4453C88.4824 15.4062 88.6484 15.3867 88.7461 15.3867C89.1465 15.3867 89.4248 15.5527 89.5811 15.8848C89.6396 16.002 89.6689 16.1338 89.6689 16.2803C89.6689 16.3291 89.6592 16.4072 89.6396 16.5146C89.6299 16.6123 89.625 16.6807 89.625 16.7197C89.8984 16.71 90.2646 16.6318 90.7236 16.4854C91.2119 16.3193 91.8467 16.0654 92.6279 15.7236C92.7939 15.6553 92.9648 15.6895 93.1406 15.8262C93.248 15.9043 93.3213 15.9971 93.3604 16.1045C93.3604 16.1143 93.3604 16.1387 93.3604 16.1777C93.3701 16.2168 93.3799 16.2412 93.3896 16.251V16.3389Z" fill="white"/>
</svg>
